{"title":"Captain America Civil War 2016 1080p TC X264 Masteredition Hive-","uid":14602715,"size":5919245198,"categoryP":"video","categoryS":"movies","magnet":"?xt=urn:btih:ac47e9b2a7ff97919f8dcaa7c56b16a876002411&amp;dn=Captain+America+Civil+War+2016+1080p+TC+X264+Masteredition+Hive-&amp;tr=udp%3A%2F%2Ftracker.leechers-paradise.org%3A6969&amp;tr=udp%3A%2F%2Fzer0day.ch%3A1337&amp;tr=udp%3A%2F%2Fopen.demonii.com%3A1337&amp;tr=udp%3A%2F%2Ftracker.coppersurfer.tk%3A6969&amp;tr=udp%3A%2F%2Fexodus.desync.com%3A6969","seeders":2,"leechers":0,"uploader":"makintos13","files":3,"time":1463056156,"description":"Captain America Civil War 2016 1080p TC X264 Masteredition Hive-CM8\r\n \nhttps://imgmak.com/Tyy\r\n \nhttps://imgmak.com/Ty6\r\n \nhttps://imgmak.com/Ty9\r\n \nhttps://imgmak.com/TyM\r\n \nhttps://imgmak.com/TyO\r\n \nhttps://imgmak.com/TyP\r\n \nhttps://imgmak.com/TyY\r\n \nhttps://imgmak.com/Ty0\r\n\r\n\r\nCaptain.America.Civil.War.2016.1080p.TC.X264.Masteredition.Hive-CM8\r\n\r\nThx Hive\r\n\r\nCM8 Doing It Right The First Time\r\n\r\nSources:\r\n\r\nVideo: 1080p Chinese Telecine\r\nAudio: Direct Line (CPG/Exclusive)\r\nthx\r\n\r\nNotes:\r\nThis is a special Encode which took me cpl days of work, but the result is excellent, its a masterpiece from this source\r\nI have encoded it in 1080p only cause this movie needs quality. looks and sounds perfect a real cinemafeeling\r\nQuality is tested and optimized to look perfect even on a 75&quot; 4K TV\r\n\r\nEncode:\r\nThe Chinese telecine needed a lot of work,was all green again, no real colours\r\nfixed brightness,constrast,colours,saturation,black base,white base,for all scenes\r\nit was a pita, but totally worth it. nothing is cut from the movie btw\r\ncomes along with bonus credits scene and the aftercredits scene\r\n\r\nLine Audio was great, lipsynced to my video\r\n\r\ngot very nice and will do me till retail\r\nenjoy\r\n\r\nPS: more Masteredition are coming!\r\nVideo: 1920x852 @bitrate 5000-8000\r\nAudio: Line AC3 2.0 Stereo\r\nSample: yes included \nhttp://www.imdb.com/title/tt3498820/\r\n\r\nGeneral\r\nComplete name: Captain.America.Civil.War.2016.1080p.TC.X264.Masteredition.Hive-CM8.mkv\r\nFormat: Matroska\r\nFormat version: Version 2\r\nFile size: 5.40 GiB\r\nDuration: 2h 27mn\r\nOverall bit rate mode: Variable\r\nOverall bit rate: 5 254 Kbps\r\nEncoded date: UTC 2016-05-11 23:03:02\r\nWriting application: mkvmerge v5.6.0 ('Kenya Kane') built on May 27 2012 16:44:04\r\nWriting library: libebml v1.2.3 + libmatroska v1.3.0\r\n\r\nVideo\r\nID: 1\r\nFormat: AVC\r\nFormat/Info: Advanced Video Codec\r\nFormat profile:   \r\nFormat settings, CABAC: Yes\r\nFormat settings, ReFrames: 4 frames\r\nMuxing mode: Header stripping\r\nCodec ID: V_MPEG4/ISO/AVC\r\nDuration: 2h 27mn\r\nBit rate mode: Variable\r\nBit rate: 4 893 Kbps\r\nMaximum bit rate: 8 000 Kbps\r\nWidth: 1 920 pixels\r\nHeight: 852 pixels\r\nDisplay aspect ratio: 2.25:1\r\nFrame rate mode: Constant\r\nFrame rate: 29.970 fps\r\nStandard: NTSC\r\nColor space: YUV\r\nChroma subsampling: 4:2:0\r\nBit depth: 8 bits\r\nScan type: Progressive\r\nBits/(Pixel*Frame): 0.100\r\nStream size: 5.03 GiB (93%)\r\nLanguage: English\r\nDefault: Yes\r\nForced: No\r\nColor primaries: BT.709\r\nTransfer characteristics: BT.709\r\nMatrix coefficients: BT.709\r\nColor range: Limited\r\n\r\nAudio\r\nID: 2\r\nFormat: AC-3\r\nFormat/Info: Audio Coding 3\r\nMode extension: CM (complete main)\r\nFormat settings, Endianness: Big\r\nMuxing mode: Header stripping\r\nCodec ID: A_AC3\r\nDuration: 2h 27mn\r\nBit rate mode: Constant\r\nBit rate: 256 Kbps\r\nChannel(s): 2 channels\r\nChannel positions: Front: L R\r\nSampling rate: 48.0 KHz\r\nBit depth: 16 bits\r\nCompression mode: Lossy\r\nDelay relative to video: 18ms\r\nStream size: 270 MiB (5%)\r\nLanguage: English\r\nDefault: Yes\r\nForced: No\r\nScreens            \r\n\r\nPlot\r\n\r\nPolitical interference in the Avengers' activities causes a rift between former allies Captain America and Iron Man\r\n\r\nCast overview, first billed only:\r\n\r\nChris Evans ... Steve Rogers / Captain America\r\nRobert Downey Jr. ... Tony Stark / Iron Man\r\nScarlett Johansson... Natasha Romanoff / Black Widow\r\nSebastian Stan ... Bucky Barnes / Winter Soldier\r\nAnthony Mackie ... Sam Wilson / Falcon\r\nDon Cheadle ... Lieutenant James Rhodes / War Machine\r\nJeremy Renner ... Clint Barton / Hawkeye\r\nChadwick Boseman ... T'Challa / Black Panther\r\nPaul Bettany ... Vision\r\nElizabeth Olsen ... Wanda Maximoff / Scarlet Witch\r\nPaul Rudd ... Scott Lang / Ant-Man\r\nEmily VanCamp ... Sharon Carter\r\nTom Holland ... Peter Parker / Spider-Man\r\nDaniel Br hl ... Zemo\r\nFrank Grillo ... Brock Rumlow / Crossbones\r\n\r\nLOOKING FOR ANYTHING YOU WANT TO LOOK AND SOUND BETTER\r\n\r\nCOME FIND US WE DONT BITE","torrent":{"xt":"urn:btih:ac47e9b2a7ff97919f8dcaa7c56b16a876002411","amp;dn":"Captain+America+Civil+War+2016+1080p+TC+X264+Masteredition+Hive-","amp;tr":["udp%3A%2F%2Ftracker.leechers-paradise.org%3A6969","udp%3A%2F%2Fzer0day.ch%3A1337","udp%3A%2F%2Fopen.demonii.com%3A1337","udp%3A%2F%2Ftracker.coppersurfer.tk%3A6969","udp%3A%2F%2Fexodus.desync.com%3A6969"],"infoHash":"ac47e9b2a7ff97919f8dcaa7c56b16a876002411","infoHashBuffer":{"type":"Buffer","data":[172,71,233,178,167,255,151,145,159,141,202,167,197,107,22,168,118,0,36,17]},"announce":[],"urlList":[]}}